<svg width="20" height="28" viewBox="0 0 20 28" fill="none" xmlns="http://www.w3.org/2000/svg">
<path d="M3.25 19.9248V9.94981C3.25 9.78981 3.295 9.6448 3.385 9.5148C3.475 9.3848 3.595 9.2948 3.745 9.24481L10.99 6.6048C11.09 6.56481 11.1875 6.5673 11.2825 6.6123C11.3775 6.6573 11.44 6.7298 11.47 6.82981C11.49 6.86981 11.5 6.90981 11.5 6.94981V10.6698L16.24 12.2448C16.39 12.2948 16.5125 12.3873 16.6075 12.5223C16.7025 12.6573 16.75 12.8048 16.75 12.9648V19.9248H18.25V21.4248H1.75V19.9248H3.25ZM4.75 19.9248H10V8.5548L4.75 10.4748V19.9248ZM15.25 19.9248V13.5048L11.5 12.2448V19.9248H15.25Z" fill="#64748B"/>
</svg>
