<svg width="17" height="17" viewBox="0 0 17 17" fill="none" xmlns="http://www.w3.org/2000/svg">
<path d="M8.33333 11.6667C9.15278 11.6667 10.0383 11.5242 10.99 11.2392C11.9417 10.9542 13.2575 10.4439 14.9375 9.70833C14.9653 9.55556 14.9828 9.40639 14.99 9.26083C14.9972 9.11528 15.0006 8.96583 15 8.8125C14.9994 8.65917 14.9403 8.53417 14.8225 8.4375C14.7047 8.34083 14.5694 8.31306 14.4167 8.35417C14.2222 8.42361 14.0069 8.49667 13.7708 8.57333C13.5347 8.65 13.2361 8.76444 12.875 8.91667C11.9167 9.31944 11.0972 9.60083 10.4167 9.76083C9.73611 9.92083 9.04167 10.0006 8.33333 10C7.61111 10 6.90278 9.91667 6.20833 9.75C5.51389 9.58333 4.66667 9.29861 3.66667 8.89583C3.30556 8.74306 3.02778 8.63194 2.83333 8.5625L2.25 8.35417C2.09722 8.29861 1.96167 8.32278 1.84333 8.42667C1.725 8.53056 1.66611 8.65917 1.66667 8.8125C1.66722 8.96583 1.67083 9.11528 1.6775 9.26083C1.68417 9.40639 1.70139 9.55556 1.72917 9.70833C3.13194 10.375 4.37861 10.8681 5.46917 11.1875C6.55972 11.5069 7.51444 11.6667 8.33333 11.6667ZM8.33333 15C9.63889 15 10.7986 14.7153 11.8125 14.1458C12.8264 13.5764 13.6181 12.8125 14.1875 11.8542C12.9653 12.3681 11.8889 12.7431 10.9583 12.9792C10.0278 13.2153 9.15278 13.3333 8.33333 13.3333C7.52778 13.3333 6.63194 13.2119 5.64583 12.9692C4.65972 12.7264 3.59722 12.3617 2.45833 11.875C3.01389 12.8333 3.80222 13.5939 4.82333 14.1567C5.84444 14.7194 7.01444 15.0006 8.33333 15ZM5.97917 5.6875C5.32639 5.03472 5 4.25 5 3.33333C5 2.41667 5.32639 1.63194 5.97917 0.979167C6.63194 0.326389 7.41667 0 8.33333 0C9.25 0 10.0347 0.326389 10.6875 0.979167C11.3403 1.63194 11.6667 2.41667 11.6667 3.33333C11.6667 4.25 11.3403 5.03472 10.6875 5.6875C10.0347 6.34028 9.25 6.66667 8.33333 6.66667C7.41667 6.66667 6.63194 6.34028 5.97917 5.6875ZM9.51083 4.51083C9.83694 4.18417 10 3.79167 10 3.33333C10 2.875 9.83694 2.48278 9.51083 2.15667C9.18472 1.83056 8.79222 1.66722 8.33333 1.66667C7.87444 1.66611 7.48222 1.82944 7.15667 2.15667C6.83111 2.48389 6.66778 2.87611 6.66667 3.33333C6.66556 3.79056 6.82889 4.18306 7.15667 4.51083C7.48444 4.83861 7.87667 5.00167 8.33333 5C8.79 4.99833 9.1825 4.83528 9.51083 4.51083ZM8.33333 16.6667C5.875 16.6667 3.87167 15.9375 2.32333 14.4792C0.775 13.0208 0.000555556 11.1319 0 8.8125C0 8.09028 0.288333 7.51389 0.865 7.08333C1.44167 6.65278 2.07 6.54861 2.75 6.77083C2.97222 6.84028 3.205 6.92028 3.44833 7.01083C3.69167 7.10139 3.97972 7.21583 4.3125 7.35417C5.20139 7.71528 5.9375 7.96889 6.52083 8.115C7.10417 8.26111 7.70833 8.33389 8.33333 8.33333C8.93056 8.33333 9.52083 8.26389 10.1042 8.125C10.6875 7.98611 11.4028 7.73611 12.25 7.375C12.6528 7.22222 12.9758 7.09722 13.2192 7C13.4625 6.90278 13.7019 6.81944 13.9375 6.75C14.6181 6.55556 15.2431 6.67361 15.8125 7.10417C16.3819 7.53472 16.6667 8.10417 16.6667 8.8125C16.6667 9.90972 16.4514 10.9342 16.0208 11.8858C15.5903 12.8375 15 13.6672 14.25 14.375C13.5 15.0828 12.6181 15.6419 11.6042 16.0525C10.5903 16.4631 9.5 16.6678 8.33333 16.6667Z" fill="#64748B"/>
</svg>
