<svg width="47" height="44" viewBox="0 0 47 44" fill="none" xmlns="http://www.w3.org/2000/svg">
<path d="M23.3333 18.6667C20.7667 18.6667 18.6667 20.7667 18.6667 23.3333C18.6667 25.9 20.7667 28 23.3333 28C25.9 28 28 25.9 28 23.3333C28 20.7667 25.9 18.6667 23.3333 18.6667ZM37.3333 23.3333C37.3333 15.61 31.0567 9.33333 23.3333 9.33333C15.61 9.33333 9.33333 15.61 9.33333 23.3333C9.33333 28.5133 12.1567 33.0167 16.3333 35.4433L18.6667 31.3833C15.89 29.75 14 26.7867 14 23.3333C14 18.1767 18.1767 14 23.3333 14C28.49 14 32.6667 18.1767 32.6667 23.3333C32.6667 26.7867 30.7767 29.75 28 31.3833L30.3333 35.4433C34.51 33.0167 37.3333 28.5133 37.3333 23.3333ZM23.3333 0C10.4533 0 0 10.4533 0 23.3333C0 31.9667 4.69 39.48 11.6433 43.5167L13.9767 39.48C8.42333 36.2367 4.66667 30.24 4.66667 23.3333C4.66667 13.02 13.02 4.66667 23.3333 4.66667C33.6467 4.66667 42 13.02 42 23.3333C42 30.24 38.2433 36.2367 32.6667 39.48L35 43.5167C41.9767 39.48 46.6667 31.9667 46.6667 23.3333C46.6667 10.4533 36.2133 0 23.3333 0Z" fill="#34DEA7"/>
</svg>
