<svg width="20" height="28" viewBox="0 0 20 28" fill="none" xmlns="http://www.w3.org/2000/svg">
<path d="M10.75 20V21.5H9.25V20H3.25C3.04 20 2.8625 19.9275 2.7175 19.7825C2.5725 19.6375 2.5 19.46 2.5 19.25V7.25C2.5 7.04 2.5725 6.8625 2.7175 6.7175C2.8625 6.5725 3.04 6.5 3.25 6.5H7.75C8.19 6.5 8.605 6.59 8.995 6.77C9.385 6.95 9.72 7.2 10 7.52C10.28 7.2 10.615 6.95 11.005 6.77C11.395 6.59 11.81 6.5 12.25 6.5H16.75C16.96 6.5 17.1375 6.5725 17.2825 6.7175C17.4275 6.8625 17.5 7.04 17.5 7.25V19.25C17.5 19.46 17.4275 19.6375 17.2825 19.7825C17.1375 19.9275 16.96 20 16.75 20H10.75ZM16 18.5V8H12.25C11.98 8 11.73 8.0675 11.5 8.2025C11.27 8.3375 11.0875 8.52 10.9525 8.75C10.8175 8.98 10.75 9.23 10.75 9.5V18.5H16ZM9.25 18.5V9.5C9.25 9.23 9.1825 8.98 9.0475 8.75C8.9125 8.52 8.73 8.3375 8.5 8.2025C8.27 8.0675 8.02 8 7.75 8H4V18.5H9.25Z" fill="#64748B"/>
</svg>
