<svg width="16" height="16" viewBox="0 0 16 16" fill="none" xmlns="http://www.w3.org/2000/svg">
<path d="M8.88889 14.2906H14.2222V6.5812L8 1.93162L1.77778 6.5812V14.2906H7.11111V9.16239H8.88889V14.2906ZM16 15.1453C16 15.3846 15.9141 15.5869 15.7422 15.7521C15.5704 15.9174 15.36 16 15.1111 16H0.888889C0.64 16 0.42963 15.9174 0.257778 15.7521C0.0859259 15.5869 0 15.3846 0 15.1453V6.17094C0 5.88604 0.112593 5.65812 0.337778 5.48718L7.44889 0.170939C7.61482 0.0569792 7.79852 0 8 0C8.20148 0 8.38519 0.0569792 8.55111 0.170939L15.6622 5.48718C15.8874 5.65812 16 5.88604 16 6.17094V15.1453Z" fill="#888888"/>
</svg>
