<svg width="14" height="15" viewBox="0 0 14 15" fill="none" xmlns="http://www.w3.org/2000/svg">
<path d="M12 1.5H1.5V13.5H12V1.5ZM0 0.75C0 0.54 0.0725 0.3625 0.2175 0.217501C0.3625 0.0725002 0.54 0 0.75 0H12.75C12.96 0 13.1375 0.0725002 13.2825 0.217501C13.4275 0.3625 13.5 0.54 13.5 0.75V14.25C13.5 14.45 13.4275 14.625 13.2825 14.775C13.1375 14.925 12.96 15 12.75 15H0.75C0.54 15 0.3625 14.9275 0.2175 14.7825C0.0725 14.6375 0 14.46 0 14.25V0.75ZM6.225 8.34L9.405 5.16L10.455 6.225L6.225 10.455L3.3 7.545L4.365 6.48L6.225 8.34Z" fill="#64748B"/>
</svg>
