<svg width="14" height="17" viewBox="0 0 14 17" fill="none" xmlns="http://www.w3.org/2000/svg">
<path d="M0.585 1.365L6.75 0L12.915 1.365C13.085 1.405 13.225 1.495 13.335 1.635C13.445 1.775 13.5 1.93 13.5 2.1V9.585C13.5 10.345 13.3225 11.055 12.9675 11.715C12.6125 12.375 12.12 12.915 11.49 13.335L6.75 16.5L2.01 13.335C1.38 12.915 0.8875 12.375 0.5325 11.715C0.1775 11.055 0 10.345 0 9.585V2.1C0 1.93 0.055 1.775 0.165 1.635C0.275 1.495 0.415 1.405 0.585 1.365ZM1.5 2.7V9.585C1.5 10.095 1.6175 10.57 1.8525 11.01C2.0875 11.45 2.415 11.81 2.835 12.09L6.75 14.7L10.665 12.09C11.085 11.81 11.4125 11.45 11.6475 11.01C11.8825 10.57 12 10.095 12 9.585V2.7L6.75 1.53L1.5 2.7ZM6.75 7.5C6.41 7.5 6.0975 7.415 5.8125 7.245C5.5275 7.075 5.3 6.8475 5.13 6.5625C4.96 6.2775 4.875 5.965 4.875 5.625C4.875 5.285 4.96 4.9725 5.13 4.6875C5.3 4.4025 5.5275 4.175 5.8125 4.005C6.0975 3.835 6.41 3.75 6.75 3.75C7.09 3.75 7.4025 3.835 7.6875 4.005C7.9725 4.175 8.2 4.4025 8.37 4.6875C8.54 4.9725 8.625 5.285 8.625 5.625C8.625 5.965 8.54 6.2775 8.37 6.5625C8.2 6.8475 7.9725 7.075 7.6875 7.245C7.4025 7.415 7.09 7.5 6.75 7.5ZM3.39 11.25C3.46 10.69 3.65 10.1825 3.96 9.7275C4.27 9.2725 4.67 8.9125 5.16 8.6475C5.65 8.3825 6.18 8.25 6.75 8.25C7.32 8.25 7.85 8.3825 8.34 8.6475C8.83 8.9125 9.23 9.2725 9.54 9.7275C9.85 10.1825 10.04 10.69 10.11 11.25H3.39Z" fill="#64748B"/>
</svg>
