<svg width="20" height="28" viewBox="0 0 20 28" fill="none" xmlns="http://www.w3.org/2000/svg">
<path d="M10 21.5C8.98 21.5 8.005 21.305 7.075 20.915C6.185 20.535 5.3925 19.9975 4.6975 19.3025C4.0025 18.6075 3.465 17.815 3.085 16.925C2.695 15.995 2.5 15.02 2.5 14C2.5 12.98 2.695 12.005 3.085 11.075C3.465 10.185 4.0025 9.3925 4.6975 8.6975C5.3925 8.0025 6.185 7.465 7.075 7.085C8.005 6.695 8.98 6.5 10 6.5C11.02 6.5 11.995 6.695 12.925 7.085C13.815 7.465 14.6075 8.0025 15.3025 8.6975C15.9975 9.3925 16.535 10.185 16.915 11.075C17.305 12.005 17.5 12.98 17.5 14C17.5 15.02 17.305 15.995 16.915 16.925C16.535 17.815 15.9975 18.6075 15.3025 19.3025C14.6075 19.9975 13.815 20.535 12.925 20.915C11.995 21.305 11.02 21.5 10 21.5ZM10 20C11.09 20 12.1 19.725 13.03 19.175C13.93 18.645 14.645 17.93 15.175 17.03C15.725 16.1 16 15.09 16 14C16 12.91 15.725 11.9 15.175 10.97C14.645 10.07 13.93 9.355 13.03 8.825C12.1 8.275 11.09 8 10 8C8.91 8 7.9 8.275 6.97 8.825C6.07 9.355 5.355 10.07 4.825 10.97C4.275 11.9 4 12.91 4 14C4 15.09 4.275 16.1 4.825 17.03C5.355 17.93 6.07 18.645 6.97 19.175C7.9 19.725 8.91 20 10 20ZM7.375 15.5H11.5C11.6 15.5 11.6875 15.4625 11.7625 15.3875C11.8375 15.3125 11.875 15.225 11.875 15.125C11.875 15.025 11.8375 14.9375 11.7625 14.8625C11.6875 14.7875 11.6 14.75 11.5 14.75H8.5C8.16 14.75 7.8475 14.665 7.5625 14.495C7.2775 14.325 7.05 14.0975 6.88 13.8125C6.71 13.5275 6.625 13.215 6.625 12.875C6.625 12.535 6.71 12.2225 6.88 11.9375C7.05 11.6525 7.2775 11.425 7.5625 11.255C7.8475 11.085 8.16 11 8.5 11H9.25V9.5H10.75V11H12.625V12.5H8.5C8.4 12.5 8.3125 12.5375 8.2375 12.6125C8.1625 12.6875 8.125 12.775 8.125 12.875C8.125 12.975 8.1625 13.0625 8.2375 13.1375C8.3125 13.2125 8.4 13.25 8.5 13.25H11.5C11.84 13.25 12.1525 13.335 12.4375 13.505C12.7225 13.675 12.95 13.9025 13.12 14.1875C13.29 14.4725 13.375 14.785 13.375 15.125C13.375 15.465 13.29 15.7775 13.12 16.0625C12.95 16.3475 12.7225 16.575 12.4375 16.745C12.1525 16.915 11.84 17 11.5 17H10.75V18.5H9.25V17H7.375V15.5Z" fill="#64748B"/>
</svg>
