<svg width="14" height="15" viewBox="0 0 14 15" fill="none" xmlns="http://www.w3.org/2000/svg">
<path d="M3 1.5V0H10.5V1.5H12.75C12.96 1.5 13.1375 1.5725 13.2825 1.7175C13.4275 1.8625 13.5 2.04 13.5 2.25V14.25C13.5 14.46 13.4275 14.6375 13.2825 14.7825C13.1375 14.9275 12.96 15 12.75 15H0.75C0.54 15 0.3625 14.9275 0.2175 14.7825C0.0725 14.6375 0 14.46 0 14.25V2.25C0 2.04 0.0725 1.8625 0.2175 1.7175C0.3625 1.5725 0.54 1.5 0.75 1.5H3ZM3 3H1.5V13.5H12V3H10.5V4.5H3V3ZM4.5 1.5V3H9V1.5H4.5Z" fill="#64748B"/>
</svg>
