<svg width="17" height="15" viewBox="0 0 17 15" fill="none" xmlns="http://www.w3.org/2000/svg">
<path d="M7.5 15C6.48 15 5.505 14.805 4.575 14.415C3.685 14.035 2.8925 13.4975 2.1975 12.8025C1.5025 12.1075 0.965 11.315 0.585 10.425C0.195 9.495 0 8.52 0 7.5C0 6.48 0.195 5.505 0.585 4.575C0.965 3.685 1.5025 2.8925 2.1975 2.1975C2.8925 1.5025 3.685 0.965 4.575 0.585C5.505 0.195001 6.48 0 7.5 0C8.71 0 9.845 0.27 10.905 0.81C11.935 1.34 12.8 2.07 13.5 3H11.475C10.935 2.52 10.33 2.155 9.66 1.905C8.97 1.635 8.25 1.5 7.5 1.5C6.41 1.5 5.4 1.775 4.47 2.325C3.57 2.855 2.855 3.57 2.325 4.47C1.775 5.4 1.5 6.41 1.5 7.5C1.5 8.59 1.775 9.6 2.325 10.53C2.855 11.43 3.57 12.145 4.47 12.675C5.4 13.225 6.41 13.5 7.5 13.5C8.25 13.5 8.97 13.365 9.66 13.095C10.33 12.845 10.935 12.48 11.475 12H13.5C12.8 12.93 11.935 13.66 10.905 14.19C9.845 14.73 8.71 15 7.5 15ZM12.75 10.5V8.25H6.75V6.75H12.75V4.5L16.5 7.5L12.75 10.5Z" fill="#EF4444"/>
</svg>
