<svg width="15" height="15" viewBox="0 0 15 15" fill="none" xmlns="http://www.w3.org/2000/svg">
<path d="M7.5 0C8.52 0 9.495 0.195001 10.425 0.585C11.315 0.965 12.1075 1.5025 12.8025 2.1975C13.4975 2.8925 14.035 3.685 14.415 4.575C14.805 5.505 15 6.48 15 7.5C15 8.52 14.805 9.495 14.415 10.425C14.035 11.315 13.4975 12.1075 12.8025 12.8025C12.1075 13.4975 11.315 14.035 10.425 14.415C9.495 14.805 8.52 15 7.5 15C6.48 15 5.505 14.805 4.575 14.415C3.685 14.035 2.8925 13.4975 2.1975 12.8025C1.5025 12.1075 0.965 11.315 0.585 10.425C0.195 9.495 0 8.52 0 7.5H1.5C1.5 8.59 1.775 9.6 2.325 10.53C2.855 11.43 3.57 12.145 4.47 12.675C5.4 13.225 6.41 13.5 7.5 13.5C8.59 13.5 9.6 13.225 10.53 12.675C11.43 12.145 12.145 11.43 12.675 10.53C13.225 9.6 13.5 8.59 13.5 7.5C13.5 6.41 13.225 5.4 12.675 4.47C12.145 3.57 11.43 2.855 10.53 2.325C9.6 1.775 8.59 1.5 7.5 1.5C6.49 1.5 5.54 1.74 4.65 2.22C3.79 2.68 3.085 3.315 2.535 4.125H4.5V5.625H0V1.125H1.5V3C2.2 2.07 3.065 1.34 4.095 0.81C5.155 0.27 6.29 0 7.5 0ZM8.25 3.75V7.185L10.68 9.615L9.615 10.68L6.75 7.815V3.75H8.25Z" fill="#64748B"/>
</svg>
