<svg width="30" height="30" viewBox="0 0 30 30" fill="none" xmlns="http://www.w3.org/2000/svg">
<path d="M18.0502 9.06248C17.8127 9.06248 17.5752 8.97498 17.3877 8.78748L14.8502 6.24998L12.3127 8.78748C11.9502 9.14998 11.3502 9.14998 10.9877 8.78748C10.6252 8.42498 10.6252 7.82498 10.9877 7.46248L14.1877 4.26248C14.5502 3.89998 15.1502 3.89998 15.5127 4.26248L18.7127 7.46248C19.0752 7.82498 19.0752 8.42498 18.7127 8.78748C18.5252 8.97498 18.2877 9.06248 18.0502 9.06248Z" fill="#DBD300"/>
<path d="M14.8496 18.6625C14.3371 18.6625 13.9121 18.2375 13.9121 17.725V5.01245C13.9121 4.49995 14.3371 4.07495 14.8496 4.07495C15.3621 4.07495 15.7871 4.49995 15.7871 5.01245V17.725C15.7871 18.25 15.3621 18.6625 14.8496 18.6625Z" fill="#DBD300"/>
<path d="M15 25.9375C8.5625 25.9375 4.0625 21.4375 4.0625 15C4.0625 14.4875 4.4875 14.0625 5 14.0625C5.5125 14.0625 5.9375 14.4875 5.9375 15C5.9375 20.3375 9.6625 24.0625 15 24.0625C20.3375 24.0625 24.0625 20.3375 24.0625 15C24.0625 14.4875 24.4875 14.0625 25 14.0625C25.5125 14.0625 25.9375 14.4875 25.9375 15C25.9375 21.4375 21.4375 25.9375 15 25.9375Z" fill="#DBD300"/>
</svg>
