<svg width="120" height="57" viewBox="0 0 120 57" fill="none" xmlns="http://www.w3.org/2000/svg">
<mask id="mask0_690_8763" style="mask-type:luminance" maskUnits="userSpaceOnUse" x="0" y="0" width="120" height="57">
<path d="M0 0H120V56.8421H0V0Z" fill="white"/>
</mask>
<g mask="url(#mask0_690_8763)">
<mask id="mask1_690_8763" style="mask-type:luminance" maskUnits="userSpaceOnUse" x="0" y="0" width="122" height="57">
<path d="M121.27 0H0V56.8421H121.27V0Z" fill="white"/>
</mask>
<g mask="url(#mask1_690_8763)">
<mask id="mask2_690_8763" style="mask-type:luminance" maskUnits="userSpaceOnUse" x="59" y="0" width="60" height="55">
<path d="M59.3447 0.737305H118.79V54.2589H59.3447V0.737305Z" fill="white"/>
</mask>
<g mask="url(#mask2_690_8763)">
<mask id="mask3_690_8763" style="mask-type:luminance" maskUnits="userSpaceOnUse" x="59" y="0" width="63" height="55">
<path d="M121.27 0H59.3447V54.2584H121.27V0Z" fill="white"/>
</mask>
<g mask="url(#mask3_690_8763)">
<path d="M64.1777 24.7109H69.701V27.6984H69.9832C70.2755 26.8708 70.8399 26.1643 71.6765 25.5991C72.5332 25.0137 73.6318 24.7109 74.9824 24.7109C75.3855 24.7109 75.7685 24.7412 76.1515 24.7917L75.8693 29.9188C75.3251 29.7371 74.7002 29.6362 73.9745 29.6362C72.4929 29.6362 71.4043 30.0298 70.7089 30.8069C70.0336 31.5639 69.701 32.8255 69.701 34.6018V43.6448H64.1777V24.7109Z" fill="white"/>
<path d="M76.3086 17.0811H81.9528V31.8164H82.1141L87.3551 24.7111H93.5234L87.1939 33.4312L93.6847 43.6451H87.4761L82.1544 34.602H81.9528V43.6451H76.3086V17.0811Z" fill="white"/>
<path d="M101.215 43.9682C99.1991 43.9682 97.5058 43.5241 96.1351 42.636C94.7644 41.7478 93.7363 40.567 93.0711 39.0833C92.426 37.6098 92.1035 35.9647 92.1035 34.1581C92.1035 32.3616 92.426 30.7165 93.0711 29.2329C93.7363 27.7593 94.7644 26.5684 96.1351 25.6802C97.5058 24.7719 99.1991 24.3076 101.215 24.3076C103.231 24.3076 104.924 24.7517 106.295 25.6399C107.665 26.528 108.673 27.729 109.318 29.2329C109.984 30.7165 110.326 32.3414 110.326 34.1177C110.326 35.9243 109.984 37.5694 109.318 39.043C108.673 40.5266 107.665 41.7276 106.295 42.636C104.924 43.5241 103.231 43.9682 101.215 43.9682ZM101.215 39.487C102.445 39.487 103.362 38.9824 103.956 37.953C104.541 36.9336 104.843 35.6417 104.843 34.0774C104.843 32.5433 104.541 31.2817 103.956 30.2825C103.362 29.2934 102.445 28.7888 101.215 28.7888C99.9752 28.7888 99.058 29.2934 98.4734 30.2825C97.8788 31.2817 97.5865 32.5433 97.5865 34.0774C97.5865 35.6417 97.8788 36.9336 98.4734 37.953C99.0882 38.9824 100.005 39.487 101.215 39.487Z" fill="white"/>
<path d="M114.808 43.9684C113.921 43.9684 113.195 43.6656 112.631 43.0802C112.066 42.4949 111.784 41.7682 111.784 40.9002C111.784 40.0423 112.066 39.3157 112.631 38.7202C113.195 38.1348 113.921 37.832 114.808 37.832C115.695 37.832 116.42 38.1348 116.985 38.7202C117.569 39.3157 117.872 40.0423 117.872 40.9002C117.872 41.7682 117.569 42.4949 116.985 43.0802C116.39 43.6656 115.665 43.9684 114.808 43.9684Z" fill="white"/>
</g>
</g>
<mask id="mask4_690_8763" style="mask-type:luminance" maskUnits="userSpaceOnUse" x="1" y="12" width="61" height="43">
<path d="M1.1084 12.9189H61.9248V54.7936H1.1084V12.9189Z" fill="white"/>
</mask>
<g mask="url(#mask4_690_8763)">
<mask id="mask5_690_8763" style="mask-type:luminance" maskUnits="userSpaceOnUse" x="0" y="12" width="62" height="45">
<path d="M61.9261 12.9189H0.000976562V56.8424H61.9261V12.9189Z" fill="white"/>
</mask>
<g mask="url(#mask5_690_8763)">
<mask id="mask6_690_8763" style="mask-type:luminance" maskUnits="userSpaceOnUse" x="2" y="13" width="27" height="31">
<path d="M2.58203 13.4951H28.3842V43.9246H2.58203V13.4951Z" fill="white"/>
</mask>
<g mask="url(#mask6_690_8763)">
<path d="M17.2357 14.9941C18.1226 14.9941 18.929 15.0951 19.6546 15.2767C20.4005 15.4685 21.2068 15.7208 22.0736 16.0438C22.1744 16.0741 22.4768 16.1851 22.9605 16.3667C23.4645 16.5282 23.908 16.609 24.291 16.609C24.6639 16.609 25.0368 16.4778 25.4198 16.2053C25.823 15.9429 26.1455 15.5492 26.3874 15.0345H27.1534L25.0973 23.9968H24.3716C24.3716 23.8959 24.3918 23.6739 24.4522 23.3509C24.5026 23.0077 24.5329 22.6141 24.5329 22.1801C24.5329 20.8681 24.1499 19.7781 23.404 18.9101C22.6783 18.022 21.7712 17.376 20.7029 16.9723C19.6546 16.5686 18.6467 16.3667 17.6792 16.3667C16.1976 16.3667 14.9881 16.7906 14.0507 17.6182C13.1336 18.4257 12.68 19.4147 12.68 20.5653C12.68 21.514 12.9723 22.3719 13.567 23.149C14.1515 23.906 15.1796 24.9254 16.631 26.2172L17.7598 27.2669C19.1809 28.5587 20.2695 29.6286 21.0254 30.4562C21.7712 31.2939 22.3558 32.1316 22.759 32.9592C23.1621 33.7968 23.3637 34.7153 23.3637 35.7044C23.3637 36.9962 23.0009 38.2477 22.2752 39.4589C21.5696 40.67 20.5114 41.6692 19.0902 42.4463C17.6892 43.1932 15.9657 43.5767 13.9298 43.5767C12.7405 43.5767 11.7628 43.4757 10.9867 43.2941C10.2308 43.1023 9.43459 42.8298 8.60811 42.4463C8.38638 42.3454 8.06385 42.2041 7.64053 42.0426C7.09627 41.8306 6.71327 41.7196 6.47137 41.7196C5.98758 41.7196 5.56427 41.8811 5.22158 42.2041C4.86882 42.527 4.54629 42.9711 4.254 43.5363H3.52832L5.62474 33.484H6.43106C6.32019 34.1097 6.2698 34.8061 6.2698 35.5833C6.2698 36.9861 6.6024 38.1973 7.27769 39.2166C7.9429 40.2158 8.80969 40.9728 9.8579 41.4774C10.9263 41.9618 12.035 42.2041 13.1638 42.2041C14.2926 42.2041 15.3106 41.982 16.2278 41.5178C17.1349 41.0636 17.8606 40.4278 18.4049 39.6203C18.939 38.7927 19.2112 37.8743 19.2112 36.8751C19.2112 36.0677 19.0298 35.3208 18.6871 34.6144C18.3343 33.918 17.9009 33.3023 17.397 32.7573C16.9132 32.2224 16.2076 31.526 15.3005 30.658L14.0911 29.568L13.2444 28.801C11.7931 27.4586 10.6844 26.298 9.93853 25.3291C9.21285 24.34 8.85001 23.2197 8.85001 21.9783C8.85001 20.4745 9.27332 19.1927 10.1401 18.1431C11.0271 17.0934 12.1156 16.3163 13.4057 15.8016C14.716 15.2666 15.996 14.9941 17.2357 14.9941Z" fill="white"/>
</g>
<path d="M33.0358 24.4414L31.6651 29.0437L31.7457 29.1244C32.9753 27.3784 34.0638 26.1673 35.0113 25.491C35.9788 24.7947 36.9666 24.4414 37.9946 24.4414C39.2545 24.4414 40.2624 24.9057 41.0183 25.814C41.7944 26.7022 42.1875 27.9839 42.1875 29.6492C42.1875 31.7283 41.6029 33.8478 40.4539 36.0278C39.3251 38.1877 37.8535 39.964 36.0595 41.3568C34.2856 42.7597 32.5117 43.4561 30.7378 43.4561C30.1935 43.4561 29.7097 43.3753 29.2864 43.2138C28.8833 43.0725 28.4096 42.8505 27.8754 42.5275L26.5046 47.2105C26.4744 47.2913 26.3837 47.5537 26.2224 48.018C26.0813 48.4721 26.0208 48.8859 26.0208 49.2695C26.0208 49.9356 26.2426 50.3696 26.7062 50.5613C27.1598 50.743 27.9661 50.8439 29.1252 50.8439L28.9236 51.5706H19.6509L19.5703 50.8439C20.4371 50.8439 21.0922 50.743 21.5458 50.5613C22.0094 50.3696 22.3723 50.0466 22.6343 49.5924C22.8762 49.1584 23.1181 48.5125 23.36 47.6546L28.4398 29.8511C28.4599 29.7704 28.5406 29.4676 28.6817 28.9226C28.8429 28.3574 28.9236 27.8527 28.9236 27.3885C28.9236 26.6113 28.5607 26.2177 27.8351 26.2177C27.6738 26.2177 27.442 26.248 27.1497 26.2985C26.8776 26.3287 26.676 26.359 26.5449 26.3792L26.5046 25.6122L32.3907 24.4414H33.0358ZM30.8587 42.6486C32.169 42.6486 33.449 41.9422 34.6887 40.509C35.9184 39.0556 36.9162 37.3399 37.6721 35.3415C38.418 33.3533 38.801 31.5769 38.801 30.0126C38.801 28.9125 38.5994 28.0243 38.1962 27.3481C37.7931 26.682 37.2488 26.3388 36.5836 26.3388C34.5678 26.3388 32.5923 28.4785 30.6572 32.7578L28.2382 41.1549C28.8833 42.1541 29.7501 42.6486 30.8587 42.6486Z" fill="white"/>
<mask id="mask7_690_8763" style="mask-type:luminance" maskUnits="userSpaceOnUse" x="41" y="23" width="21" height="21">
<path d="M41.2852 23.2549H61.1709V43.9247H41.2852V23.2549Z" fill="white"/>
</mask>
<g mask="url(#mask7_690_8763)">
<path d="M53.3271 24.4414C54.0527 24.4414 54.7079 24.7038 55.3025 25.2085C55.8871 25.6929 56.2499 26.3792 56.3911 27.2674H56.4717L57.1167 24.8855L60.3017 24.4414L56.1492 39.096C56.1189 39.1566 56.0484 39.3584 55.9476 39.7016C55.8367 40.0548 55.7863 40.4081 55.7863 40.7512C55.7863 40.9733 55.8367 41.1448 55.9476 41.276C56.0484 41.3871 56.1693 41.4375 56.3104 41.4375C56.6531 41.4375 57.0966 41.1953 57.6408 40.7108C58.175 40.2264 58.6891 39.5401 59.1728 38.6519L59.7776 39.096C59.0519 40.4484 58.1246 41.5082 56.9958 42.2853C55.8871 43.0624 54.9094 43.4561 54.0527 43.4561C53.5689 43.4561 53.1859 43.2744 52.9239 42.9312C52.682 42.5881 52.5611 42.1541 52.5611 41.6394C52.5611 41.2962 52.6417 40.7108 52.8029 39.9034C52.9642 39.096 53.2061 38.2886 53.5286 37.4812L53.448 37.4004C50.4042 41.4375 47.6627 43.4561 45.2236 43.4561C44.1149 43.4561 43.2481 42.9918 42.603 42.0835C41.9782 41.1448 41.6758 40.0548 41.6758 38.8134C41.6758 36.7141 42.2906 34.5341 43.5303 32.2733C44.7599 30.0126 46.2819 28.1454 48.086 26.6618C49.9103 25.1883 51.6539 24.4414 53.3271 24.4414ZM44.9414 38.0464C44.9414 39.1263 45.1833 39.9034 45.667 40.3879C46.1508 40.8723 46.7153 41.1146 47.3603 41.1146C48.1868 41.1146 49.0939 40.7411 50.0615 39.9842C51.029 39.207 51.9261 38.2381 52.7626 37.0775C53.5891 35.8966 54.214 34.6956 54.6172 33.4845C55.0203 32.3036 55.3126 31.3246 55.5041 30.5374C55.6855 29.7603 55.7863 29.0033 55.7863 28.2766C55.7863 27.227 55.5444 26.4599 55.0606 25.9755C54.5768 25.4709 54.0124 25.2085 53.3674 25.2085C52.0773 25.2085 50.767 25.9957 49.4567 27.55C48.1666 29.084 47.0882 30.9007 46.2315 33C45.3647 35.0791 44.9414 36.7545 44.9414 38.0464Z" fill="white"/>
</g>
</g>
</g>
</g>
</g>
</svg>
